<?xml version="1.0" encoding="UTF-8"?>
<svg id="Layer_1" data-name="Layer 1" xmlns="http://www.w3.org/2000/svg" version="1.1" xmlns:xlink="http://www.w3.org/1999/xlink" viewBox="0 0 185 96">
  <defs>
    <style>
      .cls-1 {
        fill: #fff;
        stroke: #cb874e;
        stroke-width: 4.1px;
      }

      .cls-2 {
        fill: none;
      }

      .cls-2, .cls-3 {
        stroke-width: 0px;
      }

      .cls-4 {
        stroke-miterlimit: 10;
      }

      .cls-4, .cls-5 {
        fill: #f0b72d;
        stroke: #bf8f66;
        stroke-width: .2px;
      }

      .cls-3 {
        fill: #031b4a;
      }

      .cls-6 {
        clip-path: url(#clippath);
      }
    </style>
    <clipPath id="clippath">
      <rect class="cls-2" x="61.6" y="14" width="66" height="66"/>
    </clipPath>
  </defs>
  <g class="cls-6">
    <g>
      <circle class="cls-1" cx="94.6" cy="47" r="31"/>
      <path class="cls-3" d="M89.3,32.8s0,0,0,0c1.8.3,3,2,3.7,3.3,1.9,4,2.9,11.1,4.3,17,.2,1,.9,3,1.2,3.8.2.5,1,2.4,1.8,3.1.5.5,1.9,1.8,3.5,1.9,1.8.2,4.1,0,4.3-2-4.3,1.8-5.8.6-6.9-.6-.7-.7-1.1-1.6-1.3-2.5-1.2-5.5-2.7-12-3.7-16.5-.3-1.3-.5-2.4-.7-3.2-.1-.7-.7-2.5-1-3.3h0l-5.1-1.1h0Z"/>
      <path class="cls-3" d="M98.3,50.5c.5,1.9.9,4,1.6,5.9.7,2,1.2,4,3.6,4.5,1.1,0,3.3,0,4,.2.5.2.3.5-1.7,1.1-3.3.9-6.3-1.3-7.2-4.3l-1.4-4.8c-.9-3.8-1.2-9.2-2.8-14.2-1.1-2.5-2.1-4.3-4.6-5.5,6.6-.4,8.1,15.4,8.5,17.1ZM89.4,32.5c1.7.4,3.5.1,5.2.5-.2,0,.5,0,.7.4.3.4.2.4.3.6,0,.2.2.7.3.9.4,1.1.8,2.4,1,3.6,1.1,4.6,2.6,11.4,3.7,16.6.3,1.4.6,3,1.8,3.9,1.6,1.2,3.7,1.1,5.1,0l2.6-2-.2,1.6c-.2,1.2-.3,2.5-1.2,3.4-1.9,2.1-5.6,2-7.7.5-2.1-1.3-3.1-3.6-3.8-5.8-.6-2-1.1-4.1-1.4-6.1-.6-3.2-1.1-6.5-1.9-9.6-.7-2.5-1.2-5.5-3.7-7.1-.3-.2-.6-.3-.9-.3-.2,0-.3,0-.5-.3-.3-.5.1-1,.7-.9h0Z"/>
      <path class="cls-3" d="M74.7,32.8s0,0,0,0c1.8.3,3,2,3.7,3.3,1.9,4,2.9,11.1,4.3,17,.2,1,.9,3,1.2,3.8.2.5,1,2.4,1.8,3.1.5.5,1.9,1.8,3.5,1.9,1.8.2,4.1,0,4.3-2-4.3,1.8-5.8.6-6.9-.6-.7-.7-1.1-1.6-1.3-2.5-1.2-5.5-2.7-12-3.7-16.5-.3-1.3-.5-2.4-.7-3.2-.1-.7-.7-2.5-1-3.3h0l-5.1-1.1h0Z"/>
      <path class="cls-3" d="M83.8,50.5c.5,1.9.9,4,1.6,5.9.7,2,1.2,4,3.6,4.5,1.1,0,3.3,0,4,.2.5.2.3.5-1.7,1.1-3.3.9-6.3-1.3-7.2-4.3l-1.4-4.8c-.9-3.8-1.2-9.2-2.8-14.2-1.1-2.5-2.1-4.3-4.6-5.5,6.6-.4,8.1,15.4,8.5,17.1ZM74.8,32.5c1.7.4,3.5.1,5.2.5-.2,0,.5,0,.7.4.3.4.2.4.3.6,0,.2.2.7.3.9.4,1.1.8,2.4,1,3.6,1.1,4.6,2.6,11.4,3.7,16.6.3,1.4.6,3,1.8,3.9,1.6,1.2,3.7,1.1,5.1,0l2.6-2-.2,1.6c-.2,1.2-.3,2.5-1.2,3.4-1.9,2.1-5.6,2-7.7.5-2.1-1.3-3.1-3.6-3.8-5.8-.6-2-1.1-4.1-1.4-6.1-.6-3.2-1.1-6.5-1.9-9.6-.7-2.5-1.2-5.5-3.7-7.1-.3-.2-.6-.3-.9-.3-.2,0-.3,0-.5-.3-.3-.5.1-1,.7-.9h0Z"/>
      <path class="cls-4" d="M109.6,48.2l-.6-2.4c-.4-1.7-1.4-3.3-2.7-4.5l-1.7-1.5h5c0,.1,4.9,0,4.9,0l-2,1.7c-1.2,1-2,2.3-2.3,3.8l-.6,3.1v-.3Z"/>
      <path class="cls-5" d="M108.8,36.3h0s0,0,0,0l-.2-1.4,1,1h0s0,0,0,0l1.8-.2-1.3,1.3h0s0,0,0,0l.2,1.4-1-1h0s0,0,0,0l-1.8.2,1.3-1.3ZM110.2,32.9h0s0,0,0,0v-.6c0,0,.3.4.3.4h0s0,0,0,0h1c0,0-.7.6-.7.6h0s0,0,0,0v.6c0,0-.3-.4-.3-.4h0s0,0,0,0h-1c0,0,.7-.6.7-.6ZM106.1,34h0s0,0,0,0v-.6c0,0,.3.4.3.4h0s0,0,0,0h1c0,0-.7.6-.7.6h0s0,0,0,0v.6c0,0-.3-.4-.3-.4h0s0,0,0,0h-1c0,0,.7-.6.7-.6Z"/>
    </g>
  </g>
</svg>