<svg width="26" height="24" viewBox="0 0 26 24" fill="none" xmlns="http://www.w3.org/2000/svg">
<path d="M24.1453 12.2773L23.5929 13.0026L13.7873 4.27875L13.7873 4.2787L13.7793 4.27168C13.5096 4.0369 13.1612 3.89932 12.7906 3.89932C12.42 3.89932 12.0716 4.0369 11.8019 4.27168L11.8019 4.27164L11.7939 4.27876L1.98905 13.0023L1.4349 12.2745L12.1291 2.76074C12.1292 2.7607 12.1292 2.76066 12.1293 2.76061C12.1293 2.76057 12.1294 2.76052 12.1294 2.76048C12.3258 2.586 12.5593 2.50066 12.7884 2.50066C13.0176 2.50066 13.2513 2.58609 13.4477 2.76074L13.4478 2.76081L17.3334 6.21401L18.9977 7.69311V5.46654V2.5H20.4696V8.55594V9.00451L20.8046 9.30279L24.1453 12.2773ZM1.20343 11.9706C1.20402 11.9714 1.20461 11.9721 1.20519 11.9729L1.20343 11.9706ZM9.70568 21.4873L5.45703 21.4991V14.5155L12.7907 7.99097L20.1224 14.5105V21.4991L15.872 21.4864V17.2494C15.872 16.8091 15.7108 16.3728 15.4025 16.0397C15.0917 15.704 14.653 15.4993 14.1776 15.4993H11.4001C10.9247 15.4993 10.486 15.704 10.1752 16.0397C9.8669 16.3728 9.70568 16.8091 9.70568 17.2494V21.4873ZM15.5664 21.4855C15.5674 21.4855 15.5684 21.4855 15.5694 21.4855H15.5664Z" fill="white" stroke="white" stroke-width="2"/>
</svg>
