<svg width="30" height="30" viewBox="0 0 30 30" fill="none" xmlns="http://www.w3.org/2000/svg">
<path d="M14.9818 13.7848C15.6427 13.7848 16.1786 14.3207 16.1786 14.9816V19.7689C16.1786 20.4298 15.6427 20.9657 14.9818 20.9657C14.3208 20.9657 13.7849 20.4298 13.7849 19.7689V14.9816C13.7849 14.3207 14.3208 13.7848 14.9818 13.7848Z" fill="#2C2C2C"/>
<path d="M14.9818 8.99761C14.3208 8.99761 13.7849 9.53343 13.7849 10.1944C13.7849 10.8554 14.3208 11.3912 14.9818 11.3912H14.9937C15.6547 11.3912 16.1905 10.8554 16.1905 10.1944C16.1905 9.53343 15.6547 8.99761 14.9937 8.99761H14.9818Z" fill="#2C2C2C"/>
<path fill-rule="evenodd" clip-rule="evenodd" d="M1.81689 14.9816C1.81689 7.71088 7.711 1.81677 14.9818 1.81677C22.2525 1.81677 28.1466 7.71088 28.1466 14.9816C28.1466 22.2524 22.2525 28.1465 14.9818 28.1465C7.711 28.1465 1.81689 22.2524 1.81689 14.9816ZM14.9818 4.21038C9.03296 4.21038 4.21051 9.03284 4.21051 14.9816C4.21051 20.9304 9.03296 25.7529 14.9818 25.7529C20.9306 25.7529 25.753 20.9304 25.753 14.9816C25.753 9.03284 20.9306 4.21038 14.9818 4.21038Z" fill="#2C2C2C"/>
</svg>
