<svg width="185" height="96" viewBox="0 0 185 96" fill="none" xmlns="http://www.w3.org/2000/svg">
<g clip-path="url(#clip0_34_1260)">
<circle cx="93.0166" cy="33.0659" r="30.9599" fill="white" stroke="#CB874E" stroke-width="4.08016"/>
<path d="M87.6863 18.9478C87.6863 18.9478 87.6454 18.9792 87.67 18.987C89.4464 19.3328 90.7071 20.9753 91.3456 22.327C93.2121 26.3193 94.2109 33.4237 95.6681 39.3256C95.9136 40.3001 96.5686 42.2805 96.8387 43.0821C96.9943 43.5458 97.8866 45.4634 98.5988 46.2257C99.1063 46.7679 100.539 47.986 102.062 48.1118C103.895 48.269 106.13 48.0961 106.392 46.1314C102.045 47.9625 100.604 46.7208 99.4993 45.5341C98.8362 44.8189 98.3777 43.9623 98.1813 43.0429C97.027 37.5574 95.447 31.0189 94.4565 26.5865C94.1699 25.3134 93.9325 24.221 93.7688 23.3644C93.6378 22.7121 93.032 20.8574 92.7537 20.0401C92.7537 20.0401 92.7537 20.0401 92.7455 20.0401L87.6945 18.9478H87.6863Z" fill="#031B4A"/>
<path d="M96.7315 36.6075C97.1981 38.5407 97.6602 40.6281 98.3724 42.4906C99.101 44.5182 99.6053 46.5385 101.963 47.0258C103.068 47.1067 105.251 47.0397 105.98 47.2487C106.514 47.4014 106.27 47.7015 104.263 48.3146C100.972 49.2105 97.9926 46.9865 97.1085 44.0237L95.6873 39.1903C94.8044 35.3468 94.4939 30.0069 92.8529 24.9846C91.7492 22.5215 90.7644 20.7224 88.2284 19.5278C94.7922 19.1506 96.3107 34.9161 96.7315 36.6075ZM87.8169 18.6476C89.487 19.0641 91.3207 18.7969 93.0071 19.1506C92.8516 19.1034 93.4819 19.2449 93.6702 19.5278C93.9813 19.9522 93.9076 19.9443 93.9731 20.0858C94.0304 20.243 94.2105 20.7852 94.2678 20.9581C94.6526 22.0583 95.0373 23.4022 95.2665 24.581C96.3227 29.2121 97.8576 36.0258 98.9607 41.1908C99.2674 42.627 99.5811 44.1869 100.732 45.0997C102.297 46.3419 104.481 46.1878 105.786 45.0768L108.34 43.1199L108.112 44.7435C107.943 45.9536 107.772 47.2394 106.951 48.1444C105.06 50.2286 101.322 50.1292 99.2124 48.6447C97.133 47.3637 96.0852 45.0611 95.4466 42.8842C94.8327 40.9195 94.366 38.8212 94.014 36.8093C93.4001 33.5794 92.9007 30.3572 92.1557 27.2059C91.4271 24.6596 90.9278 21.6733 88.4882 20.1487C88.2181 19.9915 87.9315 19.8736 87.6205 19.8029C87.4485 19.7557 87.3012 19.7321 87.1538 19.5278C86.8673 19.0563 87.2684 18.5455 87.8087 18.6398L87.8169 18.6476Z" fill="#031B4A"/>
<path d="M73.1316 18.9478C73.1316 18.9478 73.0907 18.9792 73.1153 18.987C74.8917 19.3328 76.1524 20.9753 76.791 22.327C78.6575 26.3193 79.6562 33.4237 81.1134 39.3256C81.359 40.3001 82.0139 42.2805 82.284 43.0821C82.4396 43.5458 83.3319 45.4634 84.0441 46.2257C84.5516 46.7679 85.9843 47.986 87.5069 48.1118C89.3407 48.269 91.5756 48.0961 91.8375 46.1314C87.4906 47.9625 86.0498 46.7208 84.9446 45.5341C84.2815 44.8189 83.8231 43.9623 83.6266 43.0429C82.4723 37.5574 80.8923 31.0189 79.9018 26.5865C79.6153 25.3134 79.3779 24.221 79.2141 23.3644C79.0831 22.7121 78.4774 20.8574 78.199 20.0401C78.199 20.0401 78.199 20.0401 78.1908 20.0401L73.1398 18.9478H73.1316Z" fill="#031B4A"/>
<path d="M82.1768 36.6075C82.6434 38.5407 83.1055 40.6281 83.8177 42.4906C84.5463 44.5182 85.0506 46.5385 87.4083 47.0258C88.5138 47.1067 90.6963 47.0397 91.4257 47.2487C91.9589 47.4014 91.7158 47.7015 89.7087 48.3146C86.4178 49.2105 83.4379 46.9865 82.5538 44.0237L81.1326 39.1903C80.2497 35.3468 79.9392 30.0069 78.2982 24.9846C77.1945 22.5215 76.2098 20.7224 73.6738 19.5278C80.2375 19.1506 81.7561 34.9161 82.1768 36.6075ZM73.2622 18.6476C74.9323 19.0641 76.766 18.7969 78.4524 19.1506C78.2969 19.1034 78.9272 19.2449 79.1155 19.5278C79.4266 19.9522 79.3529 19.9443 79.4184 20.0858C79.4757 20.243 79.6558 20.7852 79.7131 20.9581C80.0979 22.0583 80.4826 23.4022 80.7119 24.581C81.768 29.2121 83.3029 36.0258 84.406 41.1908C84.7127 42.627 85.0264 44.1869 86.177 45.0997C87.7427 46.3419 89.9262 46.1878 91.2314 45.0768L93.7855 43.1199L93.5577 44.7435C93.3879 45.9536 93.2175 47.2394 92.3964 48.1444C90.5053 50.2286 86.767 50.1292 84.6577 48.6447C82.5784 47.3637 81.5305 45.0611 80.892 42.8842C80.278 40.9195 79.8114 38.8212 79.4593 36.8093C78.8454 33.5794 78.346 30.3572 77.601 27.2059C76.8724 24.6596 76.3731 21.6733 73.9335 20.1487C73.6634 19.9915 73.3769 19.8736 73.0658 19.8029C72.8939 19.7557 72.7465 19.7321 72.5992 19.5278C72.3126 19.0563 72.7138 18.5455 73.2541 18.6398L73.2622 18.6476Z" fill="#031B4A"/>
<path d="M108.045 34.2628L107.474 31.8554C107.062 30.1257 106.115 28.5584 104.763 27.3652L103.101 25.9038L108.106 26.0327L112.99 25.9038L111.017 27.6476C109.867 28.6572 109.065 29.9845 108.718 31.453L108.106 34.5405L108.045 34.2628Z" fill="#F0B72D" stroke="#BF8F66" stroke-width="0.156929" stroke-miterlimit="10"/>
<path d="M107.244 22.3643L107.271 22.3374L107.267 22.2995L107.087 20.9118L108.086 21.9226L108.113 21.9498L108.151 21.9459L109.965 21.7607L108.682 23.0304L108.655 23.0572L108.66 23.0951L108.84 24.4828L107.841 23.4721L107.814 23.4449L107.776 23.4487L105.961 23.6339L107.244 22.3643ZM108.592 18.9758L108.619 18.9489L108.614 18.9114L108.535 18.3302L108.953 18.7561L108.979 18.7831L109.017 18.7797L110.011 18.6907L109.316 19.3982L109.289 19.4251L109.294 19.4627L109.373 20.0439L108.955 19.6179L108.929 19.591L108.891 19.5943L107.897 19.6833L108.592 18.9758ZM104.507 20.1421L104.533 20.1152L104.528 20.0776L104.449 19.4964L104.867 19.9223L104.894 19.9493L104.932 19.946L105.926 19.857L105.23 20.5645L105.204 20.5914L105.209 20.6289L105.288 21.2101L104.87 20.7842L104.843 20.7572L104.806 20.7606L103.811 20.8495L104.507 20.1421Z" fill="#F0B72D" stroke="#BF8F66" stroke-width="0.156929"/>
</g>
<path d="M49.9975 74.3126V74.8424C49.609 74.9837 49.2029 75.2927 48.7791 75.7695C48.3553 76.2286 47.9844 76.9702 47.6666 77.9944L43.0047 93.1189C42.8635 93.1012 42.7134 93.0924 42.5545 93.0924C42.3955 93.0924 42.2366 93.0924 42.0777 93.0924C41.9187 93.0924 41.7598 93.0924 41.6009 93.0924C41.442 93.0924 41.2919 93.1012 41.1506 93.1189L35.5882 76.2727C35.4116 75.7253 35.1909 75.3545 34.926 75.1602C34.6788 74.966 34.4139 74.86 34.1314 74.8424V74.3126C34.6258 74.3303 35.2085 74.3479 35.8796 74.3656C36.5682 74.3833 37.2481 74.3921 37.9191 74.3921C38.6961 74.3921 39.4201 74.3833 40.0911 74.3656C40.7798 74.3479 41.3272 74.3303 41.7333 74.3126V74.8424C41.2036 74.86 40.7798 74.9218 40.4619 75.0278C40.1617 75.1337 39.9851 75.3368 39.9322 75.637C39.8969 75.9372 39.9851 76.414 40.197 77.0673L43.9583 88.563L43.3491 89.649L46.3422 80.1399C46.766 78.7979 46.9691 77.7472 46.9514 76.9879C46.9338 76.2286 46.7307 75.69 46.3422 75.3721C45.9537 75.0366 45.3975 74.86 44.6735 74.8424V74.3126C45.2739 74.3303 45.8389 74.3479 46.3687 74.3656C46.8984 74.3833 47.4282 74.3921 47.9579 74.3921C48.3641 74.3921 48.7349 74.3833 49.0704 74.3656C49.4236 74.3479 49.7326 74.3303 49.9975 74.3126ZM31.0853 74.3126V74.8424C30.7321 74.8954 30.4849 75.0278 30.3436 75.2397C30.2024 75.4339 30.1406 75.6988 30.1582 76.0343C30.1935 76.3522 30.273 76.6965 30.3966 77.0673L34.4492 88.8279L33.734 89.7814L37.1245 79.875L37.4953 80.5902L33.3367 93.1189C33.1955 93.1012 33.0454 93.0924 32.8864 93.0924C32.7275 93.0924 32.5686 93.0924 32.4097 93.0924C32.2507 93.0924 32.0918 93.0924 31.9329 93.0924C31.774 93.0924 31.6239 93.1012 31.4826 93.1189L25.5494 76.5376C25.3198 75.8842 25.0461 75.4428 24.7282 75.2132C24.428 74.9837 24.1455 74.86 23.8806 74.8424V74.3126C24.4104 74.3303 25.0373 74.3479 25.7613 74.3656C26.4852 74.3833 27.1739 74.3921 27.8273 74.3921C28.5336 74.3921 29.1605 74.3833 29.7079 74.3656C30.273 74.3479 30.7321 74.3303 31.0853 74.3126ZM52.3388 93.2513C51.5441 93.2513 50.8819 93.1012 50.3522 92.801C49.8224 92.5008 49.4339 92.1035 49.1867 91.6091C48.9395 91.097 48.8159 90.5408 48.8159 89.9404C48.8159 89.1811 48.9837 88.563 49.3192 88.0862C49.6723 87.6095 50.1226 87.221 50.67 86.9208C51.2174 86.6206 51.7913 86.3734 52.3917 86.1791C53.0098 85.9849 53.5925 85.7995 54.1399 85.6229C54.705 85.4286 55.1553 85.2079 55.4908 84.9607C55.844 84.6958 56.0205 84.3603 56.0205 83.9542V81.8881C56.0205 81.429 55.9411 81.0228 55.7822 80.6697C55.6409 80.2988 55.4113 80.0163 55.0935 79.8221C54.7933 79.6278 54.396 79.5307 53.9015 79.5307C53.5484 79.5307 53.1952 79.5837 52.842 79.6896C52.4889 79.7779 52.1975 79.9368 51.9679 80.1664C52.4624 80.343 52.842 80.6167 53.1069 80.9875C53.3894 81.3407 53.5307 81.7468 53.5307 82.206C53.5307 82.8063 53.3188 83.2831 52.895 83.6363C52.4889 83.9895 52.0032 84.1661 51.4382 84.1661C50.8025 84.1661 50.3169 83.9718 49.9814 83.5833C49.6635 83.1772 49.5046 82.6916 49.5046 82.1265C49.5046 81.6144 49.6282 81.1906 49.8754 80.8551C50.1403 80.5196 50.5023 80.2017 50.9614 79.9015C51.4558 79.619 52.0474 79.3983 52.7361 79.2393C53.4424 79.0804 54.2017 79.001 55.014 79.001C55.8263 79.001 56.5591 79.0892 57.2125 79.2658C57.8659 79.4248 58.4133 79.7249 58.8547 80.1664C59.2609 80.5726 59.5258 81.0758 59.6494 81.6762C59.773 82.2589 59.8348 83.0006 59.8348 83.9012V91.1058C59.8348 91.5473 59.8789 91.8563 59.9672 92.0329C60.0555 92.1918 60.2056 92.2713 60.4175 92.2713C60.5764 92.2713 60.7265 92.2271 60.8678 92.1388C61.0267 92.0506 61.1945 91.9446 61.3711 91.821L61.6359 92.2713C61.2651 92.5891 60.8325 92.8364 60.338 93.0129C59.8613 93.1719 59.3227 93.2513 58.7223 93.2513C58.0689 93.2513 57.548 93.163 57.1595 92.9865C56.771 92.7922 56.4885 92.5362 56.3119 92.2183C56.153 91.9005 56.0735 91.5296 56.0735 91.1058C55.6497 91.7769 55.1376 92.3066 54.5372 92.6951C53.9369 93.0659 53.204 93.2513 52.3388 93.2513ZM54.2194 91.5561C54.5726 91.5561 54.8904 91.4767 55.1729 91.3177C55.4731 91.1411 55.7557 90.8586 56.0205 90.4701V85.0401C55.8616 85.305 55.6409 85.5434 55.3584 85.7553C55.0758 85.9672 54.7756 86.1879 54.4578 86.4175C54.1399 86.6294 53.8309 86.8678 53.5307 87.1327C53.2482 87.3976 53.0186 87.7242 52.842 88.1127C52.6654 88.5012 52.5771 88.9692 52.5771 89.5166C52.5771 90.2052 52.7272 90.7173 53.0274 91.0529C53.3276 91.3884 53.7249 91.5561 54.2194 91.5561ZM71.5047 79.001C72.0697 79.001 72.5289 79.1246 72.882 79.3718C73.2352 79.6013 73.4913 79.9015 73.6502 80.2724C73.8268 80.6432 73.9151 81.0317 73.9151 81.4378C73.9151 82.0912 73.7208 82.6298 73.3323 83.0536C72.9615 83.4597 72.4671 83.6628 71.849 83.6628C71.231 83.6628 70.7454 83.5127 70.3922 83.2125C70.0567 82.8946 69.8889 82.4797 69.8889 81.9676C69.8889 81.4731 69.9949 81.067 70.2068 80.7491C70.4363 80.4136 70.7189 80.1311 71.0544 79.9015C70.8072 79.8309 70.5599 79.8397 70.3127 79.928C69.9772 79.981 69.6594 80.1223 69.3592 80.3518C69.059 80.5637 68.8029 80.8374 68.591 81.1729C68.3791 81.4908 68.2114 81.844 68.0878 82.2325C67.9642 82.6033 67.9023 82.9653 67.9023 83.3184V90.3377C67.9023 91.1853 68.1054 91.7592 68.5116 92.0594C68.9354 92.3596 69.5622 92.5097 70.3922 92.5097V93.0659C69.986 93.0483 69.3945 93.0306 68.6175 93.0129C67.8405 92.9776 67.0283 92.96 66.1806 92.96C65.4743 92.96 64.7591 92.9776 64.0351 93.0129C63.3111 93.0306 62.7637 93.0483 62.3929 93.0659V92.5097C63.011 92.5097 63.4436 92.3772 63.6908 92.1124C63.9557 91.8475 64.0881 91.3442 64.0881 90.6026V82.2589C64.0881 81.4643 63.9645 80.8816 63.7173 80.5107C63.4877 80.1223 63.0463 79.928 62.3929 79.928V79.3718C62.958 79.4248 63.5054 79.4512 64.0351 79.4512C64.7768 79.4512 65.4655 79.4248 66.1012 79.3718C66.7545 79.3011 67.3549 79.204 67.9023 79.0804V81.5438C68.1142 81.067 68.3968 80.6344 68.75 80.2459C69.1031 79.8574 69.5093 79.5572 69.9684 79.3453C70.4275 79.1157 70.9396 79.001 71.5047 79.001ZM87.4271 72.3261V90.1523C87.4271 90.9469 87.5507 91.5385 87.7979 91.9269C88.0451 92.2978 88.4866 92.4832 89.1223 92.4832V93.0394C88.5749 92.9865 88.0275 92.96 87.4801 92.96C86.7384 92.96 86.0409 92.9865 85.3875 93.0394C84.7518 93.0924 84.1603 93.1895 83.6129 93.3308V75.5046C83.6129 74.7099 83.4893 74.1272 83.242 73.7564C83.0125 73.3679 82.571 73.1737 81.9177 73.1737V72.6174C82.4827 72.6704 83.0301 72.6969 83.5599 72.6969C84.2839 72.6969 84.9726 72.6704 85.6259 72.6174C86.2793 72.5468 86.8797 72.4497 87.4271 72.3261ZM80.6727 79.001C81.4497 79.001 82.1296 79.1334 82.7123 79.3983C83.3127 79.6455 83.7806 80.0693 84.1161 80.6697L83.7983 80.961C83.5687 80.5372 83.2597 80.237 82.8712 80.0605C82.5004 79.8662 82.1031 79.7691 81.6793 79.7691C80.7787 79.7691 80.0635 80.2988 79.5338 81.3584C79.004 82.4002 78.748 84.016 78.7656 86.2056C78.7656 87.7066 78.8627 88.9073 79.057 89.8079C79.2689 90.6909 79.5603 91.3266 79.9311 91.715C80.3196 92.1035 80.761 92.2978 81.2555 92.2978C81.8559 92.2978 82.3944 92.0594 82.8712 91.5826C83.348 91.1058 83.604 90.4613 83.6394 89.649L83.7718 90.5761C83.5069 91.512 83.0743 92.2271 82.4739 92.7216C81.8912 93.1984 81.123 93.4367 80.1695 93.4367C79.1276 93.4367 78.1917 93.1807 77.3618 92.6686C76.5495 92.1565 75.9138 91.3707 75.4547 90.3112C74.9955 89.234 74.766 87.8478 74.766 86.1526C74.766 84.5457 75.022 83.2213 75.5341 82.1795C76.0462 81.12 76.7437 80.3253 77.6266 79.7956C78.5272 79.2658 79.5426 79.001 80.6727 79.001ZM99.3375 79.001C99.9025 79.001 100.362 79.1246 100.715 79.3718C101.068 79.6013 101.324 79.9015 101.483 80.2724C101.66 80.6432 101.748 81.0317 101.748 81.4378C101.748 82.0912 101.554 82.6298 101.165 83.0536C100.794 83.4597 100.3 83.6628 99.6818 83.6628C99.0637 83.6628 98.5781 83.5127 98.225 83.2125C97.8895 82.8946 97.7217 82.4797 97.7217 81.9676C97.7217 81.4731 97.8277 81.067 98.0396 80.7491C98.2691 80.4136 98.5517 80.1311 98.8872 79.9015C98.6399 79.8309 98.3927 79.8397 98.1455 79.928C97.81 79.981 97.4921 80.1223 97.1919 80.3518C96.8918 80.5637 96.6357 80.8374 96.4238 81.1729C96.2119 81.4908 96.0441 81.844 95.9205 82.2325C95.7969 82.6033 95.7351 82.9653 95.7351 83.3184V90.3377C95.7351 91.1853 95.9382 91.7592 96.3443 92.0594C96.7681 92.3596 97.395 92.5097 98.225 92.5097V93.0659C97.8188 93.0483 97.2273 93.0306 96.4503 93.0129C95.6733 92.9776 94.861 92.96 94.0134 92.96C93.3071 92.96 92.5919 92.9776 91.8679 93.0129C91.1439 93.0306 90.5965 93.0483 90.2257 93.0659V92.5097C90.8437 92.5097 91.2764 92.3772 91.5236 92.1124C91.7885 91.8475 91.9209 91.3442 91.9209 90.6026V82.2589C91.9209 81.4643 91.7973 80.8816 91.5501 80.5107C91.3205 80.1223 90.879 79.928 90.2257 79.928V79.3718C90.7908 79.4248 91.3382 79.4512 91.8679 79.4512C92.6096 79.4512 93.2983 79.4248 93.934 79.3718C94.5873 79.3011 95.1877 79.204 95.7351 79.0804V81.5438C95.947 81.067 96.2296 80.6344 96.5827 80.2459C96.9359 79.8574 97.342 79.5572 97.8012 79.3453C98.2603 79.1157 98.7724 79.001 99.3375 79.001ZM109.062 79.001C110.351 79.001 111.481 79.2393 112.452 79.7161C113.423 80.1929 114.183 80.961 114.73 82.0205C115.278 83.0801 115.551 84.4839 115.551 86.2321C115.551 87.9803 115.278 89.3841 114.73 90.4436C114.183 91.4855 113.423 92.2448 112.452 92.7216C111.481 93.1984 110.351 93.4367 109.062 93.4367C107.808 93.4367 106.687 93.1984 105.698 92.7216C104.727 92.2448 103.958 91.4855 103.393 90.4436C102.846 89.3841 102.572 87.9803 102.572 86.2321C102.572 84.4839 102.846 83.0801 103.393 82.0205C103.958 80.961 104.727 80.1929 105.698 79.7161C106.687 79.2393 107.808 79.001 109.062 79.001ZM109.062 79.5307C108.355 79.5307 107.764 80.0605 107.287 81.12C106.81 82.1618 106.572 83.8659 106.572 86.2321C106.572 88.5983 106.81 90.3024 107.287 91.3442C107.764 92.3861 108.355 92.907 109.062 92.907C109.786 92.907 110.377 92.3861 110.836 91.3442C111.313 90.3024 111.552 88.5983 111.552 86.2321C111.552 83.8659 111.313 82.1618 110.836 81.12C110.377 80.0605 109.786 79.5307 109.062 79.5307ZM140.816 74.3126V74.8424C140.428 74.9837 140.022 75.2927 139.598 75.7695C139.174 76.2286 138.803 76.9702 138.485 77.9944L133.823 93.1189C133.682 93.1012 133.532 93.0924 133.373 93.0924C133.214 93.0924 133.055 93.0924 132.896 93.0924C132.737 93.0924 132.578 93.0924 132.42 93.0924C132.261 93.0924 132.111 93.1012 131.969 93.1189L126.407 76.2727C126.23 75.7253 126.01 75.3545 125.745 75.1602C125.497 74.966 125.233 74.86 124.95 74.8424V74.3126C125.444 74.3303 126.027 74.3479 126.698 74.3656C127.387 74.3833 128.067 74.3921 128.738 74.3921C129.515 74.3921 130.239 74.3833 130.91 74.3656C131.598 74.3479 132.146 74.3303 132.552 74.3126V74.8424C132.022 74.86 131.598 74.9218 131.281 75.0278C130.98 75.1337 130.804 75.3368 130.751 75.637C130.716 75.9372 130.804 76.414 131.016 77.0673L134.777 88.563L134.168 89.649L137.161 80.1399C137.585 78.7979 137.788 77.7472 137.77 76.9879C137.752 76.2286 137.549 75.69 137.161 75.3721C136.772 75.0366 136.216 74.86 135.492 74.8424V74.3126C136.093 74.3303 136.658 74.3479 137.187 74.3656C137.717 74.3833 138.247 74.3921 138.777 74.3921C139.183 74.3921 139.554 74.3833 139.889 74.3656C140.242 74.3479 140.551 74.3303 140.816 74.3126ZM121.904 74.3126V74.8424C121.551 74.8954 121.304 75.0278 121.162 75.2397C121.021 75.4339 120.959 75.6988 120.977 76.0343C121.012 76.3522 121.092 76.6965 121.215 77.0673L125.268 88.8279L124.553 89.7814L127.943 79.875L128.314 80.5902L124.155 93.1189C124.014 93.1012 123.864 93.0924 123.705 93.0924C123.546 93.0924 123.387 93.0924 123.228 93.0924C123.069 93.0924 122.91 93.0924 122.752 93.0924C122.593 93.0924 122.443 93.1012 122.301 93.1189L116.368 76.5376C116.138 75.8842 115.865 75.4428 115.547 75.2132C115.247 74.9837 114.964 74.86 114.699 74.8424V74.3126C115.229 74.3303 115.856 74.3479 116.58 74.3656C117.304 74.3833 117.993 74.3921 118.646 74.3921C119.352 74.3921 119.979 74.3833 120.527 74.3656C121.092 74.3479 121.551 74.3303 121.904 74.3126ZM143.98 72.538C144.722 72.538 145.305 72.7234 145.728 73.0942C146.17 73.4474 146.391 73.9418 146.391 74.5775C146.391 75.2132 146.17 75.7165 145.728 76.0873C145.305 76.4405 144.722 76.6171 143.98 76.6171C143.239 76.6171 142.647 76.4405 142.206 76.0873C141.782 75.7165 141.57 75.2132 141.57 74.5775C141.57 73.9418 141.782 73.4474 142.206 73.0942C142.647 72.7234 143.239 72.538 143.98 72.538ZM146.046 79.0804V90.6026C146.046 91.3442 146.17 91.8475 146.417 92.1124C146.682 92.3772 147.123 92.5097 147.741 92.5097V93.0659C147.424 93.0483 146.929 93.0306 146.258 93.0129C145.587 92.9776 144.907 92.96 144.219 92.96C143.53 92.96 142.832 92.9776 142.126 93.0129C141.42 93.0306 140.89 93.0483 140.537 93.0659V92.5097C141.155 92.5097 141.587 92.3772 141.835 92.1124C142.1 91.8475 142.232 91.3442 142.232 90.6026V82.2589C142.232 81.4643 142.108 80.8816 141.861 80.5107C141.632 80.1223 141.19 79.928 140.537 79.928V79.3718C141.102 79.4248 141.649 79.4512 142.179 79.4512C142.921 79.4512 143.609 79.4248 144.245 79.3718C144.898 79.3011 145.499 79.204 146.046 79.0804ZM160.017 79.2393L153.395 92.6686H154.772C155.461 92.6686 156.105 92.5273 156.706 92.2448C157.324 91.9446 157.836 91.4502 158.242 90.7615C158.666 90.0728 158.922 89.1281 159.01 87.9273H159.566C159.566 89.2164 159.575 90.2759 159.593 91.1058C159.61 91.9181 159.637 92.6068 159.672 93.1719C158.878 93.1366 158.048 93.1101 157.182 93.0924C156.317 93.0747 155.452 93.0659 154.587 93.0659C153.686 93.0659 152.759 93.0747 151.805 93.0924C150.852 93.1277 149.942 93.163 149.077 93.1984L155.699 79.7691H154.216C153.509 79.7691 152.856 79.9192 152.256 80.2194C151.673 80.5019 151.187 80.9964 150.799 81.7027C150.428 82.3914 150.19 83.3273 150.084 84.5104H149.527C149.527 83.2037 149.519 82.1442 149.501 81.3319C149.483 80.5196 149.457 79.8309 149.422 79.2658C150.234 79.3011 151.073 79.3276 151.938 79.3453C152.803 79.3629 153.66 79.3718 154.507 79.3718C155.425 79.3718 156.352 79.3629 157.288 79.3453C158.242 79.31 159.151 79.2747 160.017 79.2393Z" fill="#031B4A"/>
<defs>
<clipPath id="clip0_34_1260">
<rect width="66" height="66" fill="white" transform="translate(60 0.065918)"/>
</clipPath>
</defs>
</svg>
