<svg width="21" height="25" viewBox="0 0 21 25" fill="none" xmlns="http://www.w3.org/2000/svg">
<g clip-path="url(#clip0_34_1355)">
<path d="M7.40896 4.5C7.65271 4.5 7.85584 4.67812 7.93084 4.9125C8.31521 6.12188 9.44959 7 10.7902 7C12.1308 7 13.2652 6.12188 13.6496 4.9125C13.7246 4.67812 13.9277 4.5 14.1715 4.5H14.5652C15.2683 4.5 15.9465 4.74687 16.4871 5.19687L20.4308 8.48125C20.6371 8.65312 20.7652 8.90312 20.7871 9.17188C20.809 9.44063 20.7215 9.70625 20.5433 9.90938L18.7933 11.9094C18.4371 12.3188 17.8183 12.3656 17.3996 12.0188L15.7902 10.6781V18.5C15.7902 19.6031 14.8933 20.5 13.7902 20.5H7.79021C6.68709 20.5 5.79021 19.6031 5.79021 18.5V10.6781L4.18084 12.0188C3.76521 12.3656 3.14646 12.3188 2.78709 11.9094L1.03709 9.90938C0.858964 9.70625 0.771464 9.44063 0.793339 9.17188C0.815214 8.90312 0.943339 8.65312 1.14959 8.48125L5.09334 5.19687C5.63396 4.74687 6.31209 4.5 7.01521 4.5H7.40896Z" fill="#F9F9F9"/>
</g>
<defs>
<clipPath id="clip0_34_1355">
<rect width="20.0004" height="24" fill="white" transform="translate(0.790039 0.5)"/>
</clipPath>
</defs>
</svg>
