<svg width="58" height="57" viewBox="0 0 58 57" fill="none" xmlns="http://www.w3.org/2000/svg">
<path d="M29.761 19.0337L17.9157 39.5504H41.6063L29.761 19.0337ZM27.7093 37.4987V51.4556H31.8127V37.4987H27.7093Z" fill="#DA9613"/>
<path fill-rule="evenodd" clip-rule="evenodd" d="M37.5923 18.3916L37.4906 22.5901L41.5865 23.5182C45.0962 24.3135 47.7131 27.4592 47.7131 31.2038C47.7131 35.5031 44.2692 38.9992 39.9914 39.0825L39.7478 39.0873L39.5058 39.1151C38.1172 39.2747 36.5454 39.3676 34.8903 39.4143V44.5443C36.7348 44.495 38.5102 44.3924 40.0914 44.2107C47.157 44.073 52.8423 38.3023 52.8423 31.2038C52.8423 25.0111 48.5154 19.8291 42.72 18.5159C42.7226 18.409 42.7239 18.3018 42.7239 18.1944C42.7239 11.0095 36.8994 5.18494 29.7145 5.18494C22.5296 5.18494 16.705 11.0095 16.705 18.1944L16.7053 18.2738C10.2005 18.9927 5.14111 24.5074 5.14111 31.2038C5.14111 38.3887 10.9656 44.2132 18.1505 44.2132C19.01 44.2132 20.3913 44.2676 22.0927 44.3346C23.0251 44.3713 24.0535 44.4118 25.1449 44.4492V39.3164C24.1448 39.2818 23.1866 39.2445 22.2944 39.2094L22.1684 39.2044L22.1679 39.2044C20.5705 39.1415 19.1122 39.0841 18.1505 39.0841C13.7984 39.0841 10.2703 35.556 10.2703 31.2038C10.2703 27.151 13.334 23.8068 17.2688 23.3719L21.862 22.8642L21.8343 18.243L21.8342 18.1944C21.8342 13.8422 25.3623 10.3141 29.7145 10.3141C34.0666 10.3141 37.5947 13.8422 37.5947 18.1944C37.5947 18.2603 37.5939 18.3261 37.5923 18.3916Z" fill="#000072"/>
</svg>
